<?xml version="1.0" encoding="utf-8"?>
<!-- Generator: Adobe Illustrator 26.0.1, SVG Export Plug-In . SVG Version: 6.00 Build 0)  -->
<svg version="1.1" id="Layer_1" xmlns="http://www.w3.org/2000/svg" xmlns:xlink="http://www.w3.org/1999/xlink" x="0px" y="0px"
	 viewBox="0 0 753 142" style="enable-background:new 0 0 753 142;" xml:space="preserve">
<style type="text/css">
	.st0{fill:#2E66B1;}
	.st1{fill:#F4F467;}
</style>
<g transform="translate(0.000000,142.000000) scale(0.100000,-0.100000)">
	<path class="st0" d="M3810,675V210h90h90l2,261l3,261l305-276c168-151,308-276,313-276c4,0,7,209,7,465v465h-90h-90l-2-268l-3-269
		l-305,283c-168,156-308,283-312,284C3813,1140,3810,931,3810,675z"/>
	<path class="st0" d="M415,1101c-122-34-183-106-193-228c-6-79,14-135,66-185c39-38,67-54,193-111c41-19,85-47,97-62
		c23-29,28-74,12-104c-12-24-81-51-129-51c-41,0-141,31-178,55c-12,8-26,15-30,15s-24-29-43-65l-35-66l25-19c14-11,50-29,80-41
		c167-63,334-46,429,44c50,48,71,100,71,182c0,134-52,198-212,266c-55,23-115,56-134,74c-73,69-23,155,90,155c38,0,109-21,188-54
		c13-6,23,5,48,55l32,62l-22,17C704,1090,500,1125,415,1101z"/>
	<path class="st0" d="M960,661V210h183c201,0,277,12,359,57c58,32,130,101,163,157c57,97,69,256,31,382c-38,124-149,234-275,276
		c-56,18-96,22-263,26l-198,4V661z M1395,913c87-46,132-118,142-227c11-124-43-228-145-277c-37-17-70-23-154-27l-108-5v283v282
		l113-4C1332,935,1363,930,1395,913z"/>
	<path class="st0" d="M2290,660V210h90h90v175v175h165h165v85v85h-165h-165v105v105h190h190v85v85h-280h-280V660z"/>
	<path class="st0" d="M4850,661V210h183c201,0,277,12,359,57c58,32,130,101,163,157c57,97,69,256,31,382c-38,124-149,234-275,276
		c-56,18-96,22-263,26l-198,4V661z M5285,913c87-46,132-118,142-227c11-124-43-228-145-277c-37-17-70-23-154-27l-108-5v283v282
		l113-4C5222,935,5253,930,5285,913z"/>
	<path class="st0" d="M5790,660V210h310h310v85v85h-225h-225v95v95h195h195v85v85h-195h-195v100v100h220h220v85v85h-305h-305V660z"
		/>
	<path class="st0" d="M6600,661V210h85h85v145v145h60h60l95-145l94-145h101c96,0,100,1,90,19c-5,11-50,83-100,161
		c-49,78-90,143-90,145c0,3,20,23,44,45c62,58,89,125,90,225c0,137-50,216-174,274c-52,24-66,26-247,29l-193,4V661z M6969,927
		c58-29,82-128,47-195c-24-45-68-62-166-62h-80v135v135h88C6907,940,6956,934,6969,927z"/>
</g>
<ellipse class="st1" cx="332.5" cy="127" rx="14.1" ry="6.9"/>
<path class="st0" d="M316.4,19.7c-8.1,4-12.9,9-16.9,17.4c-3.1,6.6-4.1,16.7-2.4,23.7c0.7,2.6,8.7,19.1,17.9,36.6
	c13.9,26.8,16.8,31.6,17.8,30.2c0.6-0.8,8.5-15.6,17.5-32.8l16.4-31.2v-11c0-10.6-0.1-11.2-3.4-17.3c-6.9-12.8-17.7-19.2-32-19.2
	C324.3,16.1,322.7,16.5,316.4,19.7z M339,30.6c7.4,3.1,12.2,10.2,12.2,17.9c0,5.8-1.4,9.3-5.3,13.5c-14.1,14.8-39,0.3-32.6-19
	C317,32,328.7,26.3,339,30.6z"/>
</svg>
